<svg class="nc-icon glyph" xmlns="http://www.w3.org/2000/svg" xmlns:xlink="http://www.w3.org/1999/xlink" x="0px" y="0px" width="64px" height="64px" viewBox="0 0 64 64">
<g>
<path fill="#ffffff" d="M43,19.1c3.4,0.5,6,3.4,6,6.9c0,1-0.2,2-0.7,2.9l3.7,3.7l11-11V6c0-0.6-0.4-1-1-1H43V19.1z"></path>
<path data-color="color-2" fill="#ffffff" d="M41,32.9c-1.9-0.3-3.6-1.3-4.7-2.9l-5.7,4.7c-0.4,0.3-1,0.3-1.3-0.1l-7-7l-5.4,10.8
	c-0.1,0.3-0.4,0.5-0.7,0.5c-0.3,0-0.6-0.1-0.9-0.3l-5.4-5.4L1,40.8V58c0,0.6,0.4,1,1,1h39V32.9z"></path>
<path fill="#ffffff" d="M9.4,31.2c0.4-0.3,1-0.3,1.3,0.1l5,5l5.4-10.8c0.1-0.3,0.4-0.5,0.7-0.5c0.3-0.1,0.6,0.1,0.9,0.3l7.4,7.4
	l5.3-4.4C35.1,27.5,35,26.8,35,26c0-3.5,2.6-6.4,6-6.9V5H2C1.4,5,1,5.4,1,6v32.2L9.4,31.2z"></path>
<path data-color="color-2" fill="#ffffff" d="M52.7,34.7C52.5,34.9,52.3,35,52,35s-0.5-0.1-0.7-0.3l-4.1-4.1c-1.1,1.2-2.6,2-4.2,2.3V59
	h19c0.6,0,1-0.4,1-1V24.4L52.7,34.7z"></path>
</g>
</svg>