<svg class="nc-icon glyph" xmlns="http://www.w3.org/2000/svg" xmlns:xlink="http://www.w3.org/1999/xlink" x="0px" y="0px" width="64px" height="64px" viewBox="0 0 64 64"><g>
<path data-color="color-2" fill="#ffffff" d="M22,9H8V6c0-0.552,0.448-1,1-1h12c0.552,0,1,0.448,1,1V9z"></path>
<path fill="#ffffff" d="M61,11H3c-1.105,0-2,0.895-2,2v44c0,1.105,0.895,2,2,2h58c1.105,0,2-0.895,2-2V13C63,11.895,62.105,11,61,11
	z M15,24c-1.103,0-2-0.897-2-2s0.897-2,2-2s2,0.897,2,2S16.103,24,15,24z M40,49c-7.168,0-13-5.832-13-13s5.832-13,13-13
	s13,5.832,13,13S47.168,49,40,49z"></path>
</g></svg>