<svg class="nc-icon glyph" xmlns="http://www.w3.org/2000/svg" xmlns:xlink="http://www.w3.org/1999/xlink" x="0px" y="0px" width="64px" height="64px" viewBox="0 0 64 64"><g>
<path fill="#ffffff" d="M54,30c0-0.553-0.448-1-1-1s-1,0.447-1,1c0,11.028-8.972,20-20,20s-20-8.972-20-20c0-0.553-0.448-1-1-1
	s-1,0.447-1,1c0,11.113,8.284,20.322,19,21.79V61H17c-0.552,0-1,0.447-1,1s0.448,1,1,1h30c0.552,0,1-0.447,1-1s-0.448-1-1-1H35
	v-9.21C45.716,50.322,54,41.113,54,30z"></path>
<path data-color="color-2" fill="#ffffff" d="M41,28c-0.552,0-1-0.447-1-1s0.448-1,1-1h6v-6h-6c-0.552,0-1-0.447-1-1s0.448-1,1-1h6v-2
	c0-8.271-6.729-15-15-15S17,7.729,17,16v2h6c0.552,0,1,0.447,1,1s-0.448,1-1,1h-6v6h6c0.552,0,1,0.447,1,1s-0.448,1-1,1h-6v2
	c0,8.271,6.729,15,15,15s15-6.729,15-15v-2H41z"></path>
</g></svg>