<svg class="nc-icon glyph" xmlns="http://www.w3.org/2000/svg" xmlns:xlink="http://www.w3.org/1999/xlink" x="0px" y="0px" width="64px" height="64px" viewBox="0 0 64 64"><g>
<path fill="#ffffff" d="M1,18v40c0,1.105,0.895,2,2,2h58c1.105,0,2-0.895,2-2V18H1z M17,52h-7c-0.552,0-1-0.448-1-1V36h8V52z M54,52
	H21V36h34v15C55,51.552,54.552,52,54,52z M55,32H9v-5c0-0.552,0.448-1,1-1h44c0.552,0,1,0.448,1,1V32z"></path>
<path data-color="color-2" fill="#ffffff" d="M61,4H3C1.895,4,1,4.895,1,6v10h62V6C63,4.895,62.105,4,61,4z M7,12c-1.105,0-2-0.895-2-2
	c0-1.105,0.895-2,2-2s2,0.895,2,2C9,11.105,8.105,12,7,12z M14,12c-1.105,0-2-0.895-2-2c0-1.105,0.895-2,2-2s2,0.895,2,2
	C16,11.105,15.105,12,14,12z M21,12c-1.105,0-2-0.895-2-2c0-1.105,0.895-2,2-2s2,0.895,2,2C23,11.105,22.105,12,21,12z"></path>
</g></svg>