<svg class="nc-icon glyph" xmlns="http://www.w3.org/2000/svg" xmlns:xlink="http://www.w3.org/1999/xlink" x="0px" y="0px" width="64px" height="64px" viewBox="0 0 64 64"><g>
<polygon data-color="color-2" fill="#ffffff" points="14.785,8.489 2.131,14.816 34,30.881 46.044,24.825 "></polygon>
<path data-color="color-2" fill="#ffffff" d="M48.246,23.718l13.675-6.876L30.447,1.105c-0.281-0.141-0.613-0.141-0.895,0l-12.56,6.28
	L48.246,23.718z"></path>
<path fill="#ffffff" d="M48.912,25.622c-0.123,0.103-0.265,0.176-0.419,0.211L35,32.617v30.002l27.447-13.724
	C62.786,48.725,63,48.379,63,48V18.538L48.912,25.622z"></path>
<path fill="#ffffff" d="M33,32.615L1,16.485V46c0,0.379,0.214,0.725,0.553,0.895L33,62.618V32.615z M24.553,46.333l-14-7
	C10.214,39.164,10,38.817,10,38.439v-5.877c0-0.743,0.782-1.227,1.447-0.894l14,7C25.786,38.836,26,39.183,26,39.561v5.877
	C26,46.182,25.218,46.665,24.553,46.333z"></path>
</g></svg>