<svg class="nc-icon glyph" xmlns="http://www.w3.org/2000/svg" xmlns:xlink="http://www.w3.org/1999/xlink" x="0px" y="0px" width="64px" height="64px" viewBox="0 0 64 64"><g>
<path fill="#ffffff" d="M54,1H10C7.243,1,5,3.243,5,6v52c0,2.757,2.243,5,5,5h44c2.757,0,5-2.243,5-5V6C59,3.243,56.757,1,54,1z
	 M32,59c-1.657,0-3-1.343-3-3s1.343-3,3-3s3,1.343,3,3S33.657,59,32,59z M55,48c0,0.552-0.448,1-1,1H10c-0.552,0-1-0.448-1-1V8
	c0-0.552,0.448-1,1-1h44c0.552,0,1,0.448,1,1V48z"></path>
<path data-color="color-2" fill="#ffffff" d="M47,17H17c-0.552,0-1-0.447-1-1s0.448-1,1-1h30c0.552,0,1,0.447,1,1S47.552,17,47,17z"></path>
<path data-color="color-2" fill="#ffffff" d="M47,25H17c-0.552,0-1-0.447-1-1s0.448-1,1-1h30c0.552,0,1,0.447,1,1S47.552,25,47,25z"></path>
<path data-color="color-2" fill="#ffffff" d="M47,33H17c-0.552,0-1-0.447-1-1s0.448-1,1-1h30c0.552,0,1,0.447,1,1S47.552,33,47,33z"></path>
<path data-color="color-2" fill="#ffffff" d="M32,41H17c-0.552,0-1-0.447-1-1s0.448-1,1-1h15c0.552,0,1,0.447,1,1S32.552,41,32,41z"></path>
</g></svg>