<svg class="nc-icon glyph" xmlns="http://www.w3.org/2000/svg" xmlns:xlink="http://www.w3.org/1999/xlink" x="0px" y="0px" width="64px" height="64px" viewBox="0 0 64 64"><g>
<path fill="#ffffff" d="M60,5H4C2.343,5,1,6.343,1,8v36c0,1.657,1.343,3,3,3h17.531l9.7,11.641C31.422,58.868,31.703,59,32,59
	s0.578-0.132,0.769-0.359L42.469,47H60c1.657,0,3-1.343,3-3V8C63,6.343,61.657,5,60,5z M34,33H16c-0.553,0-1-0.447-1-1s0.447-1,1-1
	h18c0.553,0,1,0.447,1,1S34.553,33,34,33z M48,21H16c-0.553,0-1-0.447-1-1s0.447-1,1-1h32c0.553,0,1,0.447,1,1S48.553,21,48,21z"></path>
</g></svg>