<svg class="nc-icon glyph" xmlns="http://www.w3.org/2000/svg" xmlns:xlink="http://www.w3.org/1999/xlink" x="0px" y="0px" width="64px" height="64px" viewBox="0 0 64 64"><g>
<circle fill="#ffffff" cx="50" cy="42" r="7"></circle>
<circle fill="#ffffff" cx="14" cy="42" r="7"></circle>
<path data-color="color-2" fill="#ffffff" d="M20,29h24c0.553,0,1-0.448,1-1v-1.965c0-1.762-0.941-3.413-2.458-4.31
	C40.441,20.482,36.907,19,32,19c-4.972,0-8.489,1.478-10.564,2.717C19.934,22.613,19,24.26,19,26.014V28C19,28.552,19.447,29,20,29z
	"></path>
<path fill="#ffffff" d="M24.542,55.725C22.441,54.482,18.907,53,14,53c-4.972,0-8.489,1.478-10.564,2.717
	C1.934,56.613,1,58.26,1,60.014V62c0,0.552,0.447,1,1,1h24c0.553,0,1-0.448,1-1v-1.965C27,58.273,26.059,56.622,24.542,55.725z"></path>
<path fill="#ffffff" d="M60.542,55.725C58.441,54.482,54.907,53,50,53c-4.972,0-8.489,1.478-10.564,2.717
	C37.934,56.613,37,58.26,37,60.014V62c0,0.552,0.447,1,1,1h24c0.553,0,1-0.448,1-1v-1.965C63,58.273,62.059,56.622,60.542,55.725z"></path>
<circle data-color="color-2" fill="#ffffff" cx="32" cy="8" r="7"></circle>
</g></svg>